<svg width="1600" height="211" viewBox="0 0 1600 211" fill="none" xmlns="http://www.w3.org/2000/svg">
<g filter="url(#filter0_dd_1_452)">
<path d="M1604 203L1559.56 172.55C1515.11 142.1 1426.22 81.2 1337.33 74.4122C1248.44 67.8781 1159.56 114.822 1070.67 115.012C981.778 114.822 892.889 67.8781 804 67.6878C715.111 67.8781 626.222 114.822 537.333 135.312C448.444 155.422 359.556 149.078 270.667 131.95C181.778 114.822 92.8889 88.1781 48.4445 74.4122L4 60.9V0L48.4445 0C92.8889 0 181.778 0 270.667 0C359.556 0 448.444 0 537.333 0C626.222 0 715.111 0 804 0C892.889 0 981.778 0 1070.67 0C1159.56 0 1248.44 0 1337.33 0C1426.22 0 1515.11 0 1559.56 0L1604 0V203Z" fill="#6D9773" fill-opacity="0.1" shape-rendering="crispEdges"/>
</g>
<defs>
<filter id="filter0_dd_1_452" x="0" y="0" width="1608" height="211" filterUnits="userSpaceOnUse" color-interpolation-filters="sRGB">
<feFlood flood-opacity="0" result="BackgroundImageFix"/>
<feColorMatrix in="SourceAlpha" type="matrix" values="0 0 0 0 0 0 0 0 0 0 0 0 0 0 0 0 0 0 127 0" result="hardAlpha"/>
<feOffset dy="4"/>
<feGaussianBlur stdDeviation="2"/>
<feComposite in2="hardAlpha" operator="out"/>
<feColorMatrix type="matrix" values="0 0 0 0 0 0 0 0 0 0 0 0 0 0 0 0 0 0 0.25 0"/>
<feBlend mode="normal" in2="BackgroundImageFix" result="effect1_dropShadow_1_452"/>
<feColorMatrix in="SourceAlpha" type="matrix" values="0 0 0 0 0 0 0 0 0 0 0 0 0 0 0 0 0 0 127 0" result="hardAlpha"/>
<feOffset dy="4"/>
<feGaussianBlur stdDeviation="2"/>
<feComposite in2="hardAlpha" operator="out"/>
<feColorMatrix type="matrix" values="0 0 0 0 0 0 0 0 0 0 0 0 0 0 0 0 0 0 0.25 0"/>
<feBlend mode="normal" in2="effect1_dropShadow_1_452" result="effect2_dropShadow_1_452"/>
<feBlend mode="normal" in="SourceGraphic" in2="effect2_dropShadow_1_452" result="shape"/>
</filter>
</defs>
</svg>
